<?xml version="1.0" standalone="no"?>
<!DOCTYPE svg PUBLIC "-//W3C//DTD SVG 1.1//EN" "http://www.w3.org/Graphics/SVG/1.1/DTD/svg11.dtd">
<!--Generator: Xara Designer (www.xara.com), SVG filter version: 6.0.0.4-->
<svg stroke-width="0.501" stroke-linejoin="bevel" fill-rule="evenodd" xmlns:xlink="http://www.w3.org/1999/xlink" xmlns="http://www.w3.org/2000/svg" version="1.1" overflow="visible" width="124pt" height="124pt" viewBox="0 0 144 144">
 <defs>
	</defs>
 <g id="Document" fill="none" stroke="black" font-family="Times New Roman" font-size="16" transform="scale(1 -1)">
  <g id="Spread" transform="translate(0 -144)">
   <g id="Layer 1">
    <g id="Group" stroke="none" stroke-miterlimit="79.8403193612775">
     <path d="M 55.42,30.059 C 46.1,30.417 0.875,26.353 8.434,12.217 C 18.124,-5.905 114.282,8.135 134.816,21.703 C 136.579,23.059 137.287,24.546 134.816,25.771 C 113.157,33.561 79.604,33.949 55.42,30.059 Z" fill="#ffdef3" stroke-width="0.5" stroke-linejoin="miter" stroke-linecap="round" marker-start="none" marker-end="none" stroke-miterlimit="159.36127744511"/>
     <g id="Group_1">
      <path d="M 40.642,138.281 C 39.15,138.578 37.337,138.541 35.639,138.433 C 27.955,138.045 21.743,135.046 17.596,130.128 C 3.015,114.372 7.953,94.617 16.655,79.096 C 27.064,60.712 42.994,43.585 61.103,29.944 C 69.565,23.313 81.094,21.24 87.914,28.297 C 103.381,41.302 119.96,60.143 128.129,78.625 C 136.126,95.322 138.005,113.899 132.595,124.248 C 125.775,137.889 107.902,141.416 96.38,136.479 C 85.718,131.575 76.83,120.738 68.157,109.198 C 63.879,125.108 56.286,135.639 40.642,138.281 Z" fill="#ff9ddb" stroke-width="2.5" stroke-linejoin="round" stroke-linecap="round" marker-start="none" marker-end="none" stroke-miterlimit="159.36127744511"/>
      <path d="M 34.417,80.006 C 33.156,79.315 32.735,78.101 32.503,76.546 C 32.529,75.153 32.775,73.494 34.052,72.556 C 35.512,71.757 36.589,72.087 37.838,73.247 C 38.934,74.713 39.164,76.505 38.325,78.216 C 37.349,79.967 35.826,80.429 34.417,80.006 Z" stroke-linejoin="miter" stroke-linecap="round" stroke-width="0.5" fill="#ffffff" marker-start="none" marker-end="none" stroke-miterlimit="159.36127744511"/>
      <path d="M 109.173,82.582 C 107.863,81.863 107.427,80.605 107.186,78.991 C 107.213,77.544 107.468,75.825 108.792,74.848 C 110.311,74.021 111.427,74.363 112.723,75.568 C 113.86,77.088 114.099,78.949 113.229,80.722 C 112.214,82.542 110.635,83.019 109.173,82.582 Z" stroke-linejoin="miter" stroke-linecap="round" stroke-width="0.5" fill="#ffffff" marker-start="none" marker-end="none" stroke-miterlimit="159.36127744511"/>
      <path d="M 60,28.509 C 41.746,42.26 25.632,59.566 15.078,78.208 C 6.826,92.929 1.536,112.112 13.617,128.185 L 16.218,131.295 L 16.273,131.352 L 19.994,134.889 C 24.161,138.062 29.453,139.93 35.534,140.237 C 37.232,140.346 39.252,140.401 40.969,140.058 C 55.488,137.606 63.401,128.632 68.084,115.529 L 68.857,113.04 L 73.304,118.756 C 80.038,127.001 87.273,134.281 95.644,138.131 C 107.856,143.363 126.867,139.746 134.206,125.071 C 139.998,113.987 137.852,94.741 129.77,77.868 C 121.462,59.069 104.665,40.02 89.07,26.916 L 89.212,27.039 C 81.412,18.968 68.72,21.678 60,28.509 Z M 86.613,29.552 C 86.655,29.597 86.702,29.64 86.749,29.68 C 102.097,42.584 118.456,61.215 126.484,79.38 C 134.398,95.902 136.01,113.812 130.984,123.424 C 124.681,136.03 107.946,139.467 97.113,134.825 C 86.951,130.152 78.316,119.707 69.602,108.112 C 68.7,106.91 66.801,107.275 66.41,108.729 C 62.228,124.277 55.01,134.02 40.314,136.502 C 39.045,136.754 37.438,136.734 35.74,136.627 C 28.479,136.259 22.761,133.449 18.978,128.961 L 18.923,128.897 C 5.183,114.052 9.631,95.322 18.231,79.983 C 28.492,61.856 44.242,44.908 62.203,31.377 C 70.41,24.947 80.775,23.512 86.613,29.552 Z" fill="#ff03a3" stroke-width="0.5" marker-start="none" marker-end="none" stroke-miterlimit="159.36127744511"/>
      <path d="M 45.571,89.201 C 46.96,88.783 47.925,86.648 47.727,84.439 C 47.528,82.227 46.237,80.775 44.848,81.193 C 43.46,81.611 42.495,83.745 42.694,85.956 C 42.893,88.165 44.183,89.62 45.571,89.201 Z" stroke-linejoin="round" stroke-linecap="round" stroke-width="1.6" fill="#eb62b9" marker-start="none" marker-end="none" stroke-miterlimit="159.36127744511"/>
      <path d="M 100.29,90.932 C 98.81,90.486 97.78,88.208 97.992,85.85 C 98.204,83.493 99.581,81.941 101.062,82.388 C 102.545,82.834 103.573,85.111 103.361,87.47 C 103.149,89.827 101.772,91.378 100.29,90.932 Z" stroke-linejoin="round" stroke-linecap="round" stroke-width="1.6" fill="#eb62b9" marker-start="none" marker-end="none" stroke-miterlimit="159.36127744511"/>
      <path d="M 63.204,62.136 C 63.383,66.491 63.486,72.115 66.107,75.065 L 66.58,75.68 C 68.104,77.388 70.434,78.23 72.69,78.07 C 75.333,77.882 77.933,76.321 79.22,73.184 C 79.243,73.128 79.261,73.07 79.279,73.012 C 80.125,69.877 80.672,66.575 80.797,63.063 C 80.825,62.265 80.199,61.594 79.403,61.565 C 78.603,61.538 77.934,62.162 77.906,62.96 C 77.818,65.413 77.51,67.76 77.024,70.023 L 76.51,72.151 L 76.188,72.809 C 75.289,74.375 73.881,75.084 72.483,75.185 C 70.816,75.303 69.214,74.556 68.4,73.312 C 68.362,73.253 68.318,73.197 68.27,73.143 C 67.483,72.256 66.952,70.793 66.619,68.761 C 66.295,66.759 66.196,64.445 66.097,62.015 C 66.062,61.219 65.388,60.598 64.59,60.629 C 63.793,60.662 63.173,61.337 63.204,62.136 Z" fill="#eb62b9" stroke-width="0.5" marker-start="none" marker-end="none" stroke-miterlimit="159.36127744511"/>
     </g>
    </g>
   </g>
  </g>
 </g>
</svg>
