<?xml version="1.0" standalone="no"?>
<!DOCTYPE svg PUBLIC "-//W3C//DTD SVG 1.1//EN" "http://www.w3.org/Graphics/SVG/1.1/DTD/svg11.dtd">
<!--Generator: Xara Designer (www.xara.com), SVG filter version: 6.0.0.4-->
<svg stroke-width="0.501" stroke-linejoin="bevel" fill-rule="evenodd" xmlns:xlink="http://www.w3.org/1999/xlink" xmlns="http://www.w3.org/2000/svg" version="1.1" overflow="visible" width="144pt" height="144pt" viewBox="0 0 144 144">
 <defs>
	</defs>
 <g id="Document" fill="none" stroke="black" font-family="Times New Roman" font-size="16" transform="scale(1 -1)">
  <g id="Spread" transform="translate(0 -144)">
   <g id="Layer 1">
    <g id="Group" stroke="none" stroke-width="0.5" stroke-miterlimit="79.8403193612775">
     <path d="M 49.424,101.456 C 46.484,101.196 45.933,99.091 46.795,95.402 L 58.745,41.122 C 59.562,38.027 61.025,35.901 64.01,36.06 L 119.303,36.06 C 123.878,36.213 127.208,37.259 128.011,40.109 L 140.164,95.402 C 141.176,99.654 138.873,102.512 134.289,102.691 L 51.618,101.554 L 49.424,101.456 Z" fill="#ffdef3" stroke-linejoin="miter" stroke-linecap="round" marker-start="none" marker-end="none"/>
     <path d="M 58.745,41.122 L 57.541,46.591 L 106.341,46.591 C 108.294,46.934 109.924,47.927 110.796,50.439 L 120.97,102.508 L 134.289,102.691 C 138.873,102.512 141.176,99.654 140.164,95.402 L 128.011,40.109 C 127.208,37.259 123.878,36.213 119.303,36.06 L 64.01,36.06 C 61.025,35.901 59.562,38.027 58.745,41.122 Z" fill="#ff9ddb" stroke-linejoin="miter" stroke-linecap="round" marker-start="none" marker-end="none"/>
     <path d="M 50.075,41.962 L 41.319,80.658 C 41.107,81.599 41.696,82.536 42.637,82.748 C 43.576,82.96 44.512,82.371 44.724,81.43 L 53.479,42.742 C 53.689,41.841 53.873,41.147 57.654,41.147 L 116.545,41.147 L 117.439,41.492 C 118.398,42.041 119.173,43.114 119.626,45.111 L 121.262,51.872 C 121.489,52.81 122.433,53.386 123.37,53.159 C 124.307,52.932 124.884,51.989 124.657,51.051 L 123.026,44.315 C 122.221,40.761 120.288,38.411 117.212,37.7 C 117.084,37.669 116.951,37.655 116.82,37.655 L 57.654,37.655 C 53.536,37.655 50.871,38.536 50.075,41.962 Z M 123.948,56.95 C 123.006,57.154 122.407,58.084 122.611,59.026 L 131.746,101.275 L 131.81,102.284 C 131.777,103.124 131.478,103.4 131.247,103.561 C 130.799,103.872 130.047,104.088 128.837,104.237 L 127.509,104.364 L 55.691,104.54 C 54.727,104.542 53.947,105.327 53.95,106.291 C 53.951,107.254 54.735,108.035 55.699,108.032 L 127.6,107.856 C 127.631,107.856 127.689,107.854 127.72,107.851 C 131.783,107.561 136.023,106.514 135.2,100.749 C 135.197,100.715 135.186,100.658 135.179,100.625 L 126.025,58.288 C 125.82,57.346 124.89,56.746 123.948,56.95 Z M 39.739,87.986 L 38.245,94.679 C 38.034,95.618 38.629,96.553 39.569,96.763 C 40.51,96.972 41.444,96.379 41.654,95.438 L 43.146,88.745 C 43.358,87.806 42.763,86.872 41.823,86.662 C 40.883,86.452 39.948,87.045 39.739,87.986 Z M 36.795,101.609 L 32.317,121.347 L 31.829,122.094 C 31.692,122.188 31.517,122.276 31.284,122.369 L 30.468,122.658 L 4.988,127.988 C 4.045,128.185 3.439,129.11 3.636,130.054 C 3.833,130.997 4.759,131.603 5.703,131.406 L 31.299,126.053 C 31.36,126.041 31.424,126.024 31.483,126.004 C 32.899,125.541 34.908,124.912 35.672,122.327 L 35.7,122.219 L 40.201,102.382 C 40.415,101.443 39.823,100.506 38.884,100.292 C 37.944,100.079 37.008,100.669 36.795,101.609 Z" fill="#ff03a3" fill-rule="evenodd" marker-start="none" marker-end="none"/>
     <g id="Group_1" fill="#ff03a3" fill-rule="evenodd">
      <path d="M 51.977,19.803 C 51.34,22.315 51.758,24.849 52.951,26.937 C 53.719,27.604 55.818,26.181 55.472,24.848 L 55.469,24.849 C 54.874,23.562 54.7,22.07 55.076,20.59 C 55.946,17.161 59.437,15.084 62.865,15.953 C 66.293,16.823 68.37,20.313 67.502,23.742 C 66.632,27.17 63.141,29.248 59.713,28.379 C 58.886,28.169 58.138,27.806 57.492,27.33 L 57.493,27.327 C 56.359,26.859 54.532,28.551 54.978,29.409 C 56.078,30.371 57.415,31.094 58.926,31.479 C 64.067,32.783 69.296,29.669 70.601,24.529 C 71.905,19.388 68.79,14.159 63.651,12.854 C 58.511,11.55 53.282,14.664 51.977,19.803 Z" marker-start="none" marker-end="none"/>
      <path d="M 103.389,19.803 C 102.751,22.315 103.17,24.849 104.364,26.937 C 105.131,27.604 107.23,26.181 106.885,24.848 L 106.882,24.849 C 106.286,23.562 106.114,22.07 106.488,20.59 C 107.359,17.161 110.849,15.084 114.278,15.953 C 117.706,16.823 119.783,20.313 118.914,23.742 C 118.044,27.17 114.554,29.248 111.125,28.379 C 110.298,28.169 109.551,27.806 108.904,27.33 L 108.907,27.327 C 107.772,26.859 105.944,28.551 106.39,29.409 C 107.491,30.371 108.827,31.094 110.339,31.479 C 115.479,32.783 120.709,29.669 122.014,24.529 C 123.318,19.388 120.204,14.159 115.065,12.854 C 109.924,11.55 104.694,14.664 103.389,19.803 Z" marker-start="none" marker-end="none"/>
     </g>
     <path d="M 55.887,94.839 C 55.887,95.802 56.668,96.585 57.633,96.585 L 79.736,96.585 C 80.699,96.585 81.482,95.802 81.482,94.839 C 81.482,93.874 80.699,93.092 79.736,93.092 L 57.633,93.092 C 56.668,93.092 55.887,93.874 55.887,94.839 Z" fill="#ffffff" fill-rule="evenodd" marker-start="none" marker-end="none"/>
     <path d="M 85.625,94.839 C 85.625,95.802 86.406,96.585 87.371,96.585 L 93.383,96.585 C 94.346,96.585 95.129,95.802 95.129,94.839 C 95.129,93.874 94.346,93.092 93.383,93.092 L 87.371,93.092 C 86.406,93.092 85.625,93.874 85.625,94.839 Z" fill="#ffffff" fill-rule="evenodd" marker-start="none" marker-end="none"/>
    </g>
   </g>
  </g>
 </g>
</svg>
